<?xml version="1.0" encoding="utf-8"?>
<!-- Generator: Adobe Illustrator 23.0.4, SVG Export Plug-In . SVG Version: 6.00 Build 0)  -->
<svg version="1.1" id="Layer_1" xmlns="http://www.w3.org/2000/svg" xmlns:xlink="http://www.w3.org/1999/xlink" x="0px" y="0px"
	 viewBox="0 0 15.998 15.267" enable-background="new 0 0 15.998 15.267" xml:space="preserve">
<g>
	<path fill="#E0E0E0" d="M8.284,12.733c-0.175-0.106-0.394-0.106-0.569,0l-4.045,2.453c-0.416,0.252-0.93-0.121-0.82-0.595
		l1.072-4.598c0.046-0.198-0.021-0.406-0.174-0.539l-3.558-3.1C-0.177,6.036,0.02,5.434,0.504,5.393l4.691-0.399
		c0.203-0.017,0.379-0.145,0.459-0.332l1.841-4.327c0.19-0.446,0.821-0.446,1.011,0l1.841,4.327c0.08,0.187,0.256,0.315,0.459,0.332
		l4.691,0.399c0.483,0.041,0.68,0.643,0.314,0.962l-3.558,3.1c-0.153,0.134-0.22,0.341-0.174,0.539l1.072,4.598
		c0.111,0.474-0.404,0.847-0.82,0.595L8.284,12.733z"/>
	<path fill-rule="evenodd" clip-rule="evenodd" fill="#FFBD03" d="M7.999,0C7.794,0,7.589,0.111,7.494,0.334L5.653,4.662
		c-0.08,0.187-0.256,0.315-0.459,0.332L0.504,5.393C0.02,5.434-0.176,6.036,0.189,6.355l3.558,3.1
		c0.153,0.134,0.22,0.341,0.174,0.539L2.85,14.591c-0.111,0.474,0.404,0.847,0.82,0.595l4.045-2.453
		c0.088-0.053,0.186-0.08,0.285-0.08V0z"/>
</g>
</svg>
