<svg width="16" height="16" viewBox="0 0 16 16" fill="none" xmlns="http://www.w3.org/2000/svg">
<path d="M8.25915 12.3636C8.09987 12.2671 7.90013 12.2671 7.74085 12.3636L4.05829 14.5955C3.67967 14.825 3.21162 14.4854 3.31222 14.0543L4.28842 9.87055C4.3305 9.69023 4.26948 9.50143 4.12983 9.37984L0.890484 6.55937C0.557386 6.26935 0.736403 5.72147 1.17648 5.68408L5.44658 5.32126C5.63109 5.30558 5.79182 5.18922 5.86433 5.01883L7.53992 1.08118C7.71253 0.675552 8.28747 0.675552 8.46008 1.08118L10.1357 5.01883C10.2082 5.18922 10.3689 5.30558 10.5534 5.32126L14.8235 5.68407C15.2636 5.72147 15.4426 6.26935 15.1095 6.55937L11.8702 9.37984C11.7305 9.50143 11.6695 9.69023 11.7116 9.87055L12.6878 14.0543C12.7884 14.4854 12.3203 14.825 11.9417 14.5955L8.25915 12.3636Z" fill="#E0E0E0"/>
<path fill-rule="evenodd" clip-rule="evenodd" d="M8.00029 0.776978C7.81335 0.776926 7.62639 0.878333 7.54007 1.0812L5.86447 5.01885C5.79197 5.18923 5.63123 5.3056 5.44673 5.32127L1.17663 5.68409C0.736547 5.72149 0.557529 6.26937 0.890627 6.55939L4.12998 9.37986C4.26962 9.50144 4.33064 9.69025 4.28857 9.87057L3.31236 14.0543C3.21176 14.4854 3.67981 14.825 4.05843 14.5955L7.74099 12.3637C7.82068 12.3154 7.91048 12.2912 8.00029 12.2913V0.776978Z" fill="#FFBD03"/>
</svg>
