<svg xmlns="http://www.w3.org/2000/svg" width="16" height="9.391" viewBox="0 0 16 9.391"><title>hand-pointing</title><path d="M14.957,1.739H8.7V1.252A1.255,1.255,0,0,0,7.443,0H6.435A2.432,2.432,0,0,0,4.716.7L2.911,2.165a3.84,3.84,0,0,0-.85.965H.348A.348.348,0,0,0,0,3.478v4.87A.348.348,0,0,0,.348,8.7H2.611a2.643,2.643,0,0,0,1.787.7H9.043a1.04,1.04,0,0,0,.766-1.746,1.041,1.041,0,0,0-.07-2.08,1.039,1.039,0,0,0,.772-1.739h4.446a1.044,1.044,0,0,0,0-2.087Z" fill="#ffd764"/><path d="M8.674,1.044H6.261a.348.348,0,1,0,0,.7H8.7V1.252A1.112,1.112,0,0,0,8.674,1.044Z" fill="#e2ac4b"/></svg>