<svg xmlns="http://www.w3.org/2000/svg" width="16" height="15.998" viewBox="0 0 16 15.998"><title>medal</title><path d="M7.738,6.014,4.834.192A.344.344,0,0,0,4.705.051.35.35,0,0,0,4.521,0H.348a.349.349,0,0,0-.3.165A.352.352,0,0,0,0,.332.35.35,0,0,0,.037.5L3.956,8.347Z" fill="#ed7064"/><path d="M8.26,6.014l2.9-5.822A.346.346,0,0,1,11.477,0H15.65a.358.358,0,0,1,.17.043.362.362,0,0,1,.128.121A.356.356,0,0,1,16,.332.35.35,0,0,1,15.963.5L12.042,8.347Z" fill="#ed7064"/><path d="M8,5.564a5.224,5.224,0,1,0,3.687,1.53A5.21,5.21,0,0,0,8,5.564Z" fill="#ffd764"/><path d="M8,7.968,8.914,9.82l2.044.3-1.48,1.442.35,2.036L8,12.633,6.171,13.6l.349-2.036L5.041,10.117l2.044-.3Z" fill="#d3a133"/></svg>