<svg xmlns="http://www.w3.org/2000/svg" width="16" height="16.334" viewBox="0 0 16 16.334"><title>party</title><path d="M12.966,11.606,4.75,3.391a.36.36,0,0,0-.34-.1.373.373,0,0,0-.162.085.368.368,0,0,0-.1.153L.041,15.856a.363.363,0,0,0-.014.17.368.368,0,0,0,.064.157.363.363,0,0,0,.3.151A.341.341,0,0,0,.5,16.315l12.324-4.107a.364.364,0,0,0,.153-.1.357.357,0,0,0,.085-.162.351.351,0,0,0,0-.182A.371.371,0,0,0,12.966,11.606Z" fill="#efd358"/><path d="M12.966,12.12c.709-.709-.671-3.238-3.081-5.648S4.946,2.682,4.237,3.391s.67,3.238,3.081,5.648S12.257,12.829,12.966,12.12Z" fill="#e2ac4b"/><path d="M10.552,8.709a.364.364,0,0,1-.174-.045.355.355,0,0,1-.131-.124.36.36,0,0,1-.022-.348c.914-1.943,3.2-2.615,5.552-1.634a.363.363,0,1,1-.28.67c-1.979-.824-3.875-.3-4.615,1.271a.361.361,0,0,1-.134.153A.353.353,0,0,1,10.552,8.709Z" fill="#43a6dd"/><path d="M12.73,3.989A1.089,1.089,0,1,0,11.641,2.9,1.09,1.09,0,0,0,12.73,3.989Z" fill="#e86c60"/><path d="M14.183,14.519a.727.727,0,1,0-.726-.727A.727.727,0,0,0,14.183,14.519Z" fill="#e2ac4b"/><path d="M9.463,6.894a.727.727,0,1,0-.727-.726A.726.726,0,0,0,9.463,6.894Z" fill="#5a7a84"/><path d="M14.727,9.8a.545.545,0,1,0-.544-.544A.544.544,0,0,0,14.727,9.8Z" fill="#ae453e"/><path d="M5.65,1.811a.545.545,0,1,0-.544-.545A.545.545,0,0,0,5.65,1.811Z" fill="#e2ac4b"/><path d="M6.921,6.531a.365.365,0,0,1-.344-.248.365.365,0,0,1,0-.224A.369.369,0,0,1,6.7,5.877,4.367,4.367,0,0,0,8.04.5a.359.359,0,0,1,0-.275.362.362,0,0,1,.469-.2.363.363,0,0,1,.2.19A5.076,5.076,0,0,1,7.139,6.458.364.364,0,0,1,6.921,6.531Z" fill="#e86c60"/><path d="M.811,4.653a.361.361,0,0,1-.257-.107A1.816,1.816,0,0,1,.135,2.553a1.822,1.822,0,0,1,.993-.993,1.821,1.821,0,0,1,.7-.135,1.822,1.822,0,0,1,1.29.554.364.364,0,0,1-.258.616.362.362,0,0,1-.255-.1,1.114,1.114,0,0,0-1.54,0,1.089,1.089,0,0,0,0,1.54.371.371,0,0,1,.1.186.361.361,0,0,1-.021.21.36.36,0,0,1-.335.224Z" fill="#43a6dd"/></svg>