<svg width="56" height="56" viewBox="0 0 56 56" fill="none" xmlns="http://www.w3.org/2000/svg">
<path d="M18.6667 53.666V2.33268C18.6667 1.68752 19.1894 1.16602 19.8334 1.16602H31.5C32.144 1.16602 32.6667 1.68752 32.6667 2.33268V53.666C32.6667 54.3112 32.144 54.8327 31.5 54.8327H19.8334C19.1894 54.8327 18.6667 54.3112 18.6667 53.666Z" fill="#A67C52"/>
<path d="M26.8333 43.166H24.5V54.8327H26.8333V43.166Z" fill="#87613E"/>
<path d="M3.5 26.832V10.4987C3.5 9.85353 4.02267 9.33203 4.66667 9.33203H44.3333C44.674 9.33203 44.9972 9.48136 45.2188 9.74036L52.2188 17.907C52.5933 18.3434 52.5933 18.9885 52.2188 19.4249L45.2188 27.5915C44.9972 27.8494 44.674 27.9987 44.3333 27.9987H4.66667C4.02267 27.9987 3.5 27.4772 3.5 26.832Z" fill="#E6E6E6"/>
<path d="M18.6668 30.332L32.6668 30.332L32.6668 27.9987L18.6668 27.9987L18.6668 30.332Z" fill="#87613E"/>
</svg>
