<svg width="24" height="24" viewBox="0 0 24 24" fill="none" xmlns="http://www.w3.org/2000/svg">
<path d="M6.50008 21.4998C6.399 21.4998 8.52303 12.8509 8.52303 12.8509C8.57479 12.6839 8.71053 12.556 8.88045 12.5145C9.04988 12.4715 9.23006 12.5228 9.35359 12.6463L12.8536 16.1463C12.9561 16.2489 13.0089 16.3905 12.9986 16.5355C12.9884 16.68 12.9161 16.8128 12.7999 16.8997L6.79988 21.3997C6.7115 21.4666 6.60555 21.4998 6.50008 21.4998Z" fill="#7F7F7F"/>
<path d="M17.9961 22.5C17.8897 22.5 17.7837 22.4659 17.6963 22.3999L1.7002 10.3999C1.55518 10.2915 1.48048 10.1138 1.5044 9.93461C1.52784 9.75541 1.64649 9.60306 1.81446 9.53568L21.8145 1.53568C21.9849 1.4683 22.1792 1.4976 22.3198 1.61576C22.4609 1.73295 22.5264 1.91801 22.4902 2.09818L18.4863 22.0982C18.4527 22.2666 18.335 22.4058 18.1743 22.4673C18.1167 22.4893 18.0562 22.5 17.9961 22.5Z" fill="#E6E6E6"/>
<path d="M6.50049 21.4999C6.47364 21.4999 6.44678 21.498 6.41993 21.4936C6.17774 21.454 6 21.245 6 20.9999V13.4999C6 13.3417 6.07519 13.1928 6.20215 13.0986L21.7022 1.59856C21.9146 1.44084 22.2114 1.476 22.3818 1.67668C22.5522 1.87834 22.5366 2.17717 22.3467 2.36028L8.59927 15.5754L6.97412 21.1581C6.90528 21.3647 6.7124 21.4999 6.50049 21.4999Z" fill="#B3B3B3"/>
</svg>
