<svg xmlns="http://www.w3.org/2000/svg" width="16" height="17.524" viewBox="0 0 16 17.524"><title>sign</title><path d="M4.952,17.143V.381A.381.381,0,0,1,5.333,0h3.81a.381.381,0,0,1,.381.381V17.143a.381.381,0,0,1-.381.381H5.333A.381.381,0,0,1,4.952,17.143Z" fill="#a67c52"/><path d="M7.619,13.714H6.857v3.81h.762Z" fill="#87613e"/><path d="M0,8.381V3.048a.381.381,0,0,1,.381-.381H13.333a.38.38,0,0,1,.29.133l2.285,2.667a.378.378,0,0,1,0,.5L13.623,8.629a.384.384,0,0,1-.29.133H.381A.381.381,0,0,1,0,8.381Z" fill="#e6e6e6"/><path d="M4.952,9.524H9.524V8.762H4.952Z" fill="#87613e"/></svg>