<svg xmlns="http://www.w3.org/2000/svg" width="16" height="15.263" viewBox="0 0 16 15.263"><title>star-half</title><path d="M8,11.015l3.451,2.092L10.538,9.2l3.037-2.644-4-.34L8,2.513ZM3.67,15.181a.549.549,0,0,1-.82-.594l1.072-4.6a.546.546,0,0,0-.174-.539L.189,6.353A.55.55,0,0,1,.5,5.391l4.691-.4a.55.55,0,0,0,.459-.332L7.5.334a.549.549,0,0,1,1.01,0L10.346,4.66a.55.55,0,0,0,.459.332l4.691.4a.55.55,0,0,1,.315.962l-3.559,3.1a.546.546,0,0,0-.174.539l1.072,4.6a.549.549,0,0,1-.82.594L8.285,12.729a.551.551,0,0,0-.57,0Z"/></svg>