<svg xmlns="http://www.w3.org/2000/svg" width="14.609" height="16" viewBox="0 0 14.609 16"><title>store</title><path d="M12.87,6.261H1.739a.348.348,0,0,0-.348.348v8.7a.7.7,0,0,0,.7.7H12.522a.7.7,0,0,0,.7-.7V6.609A.347.347,0,0,0,12.87,6.261Z" fill="#e6e6e6"/><path d="M14.572,5.758,11.79.192A.35.35,0,0,0,11.478,0H3.13a.348.348,0,0,0-.311.192L.037,5.758A.347.347,0,0,0,0,5.913,2.149,2.149,0,0,0,2.087,8.348,2.07,2.07,0,0,0,3.826,7.43a2.106,2.106,0,0,0,3.478,0,2.107,2.107,0,0,0,3.479,0,2.069,2.069,0,0,0,1.739.918,2.15,2.15,0,0,0,2.087-2.435A.347.347,0,0,0,14.572,5.758Z" fill="#e86c60"/><path d="M2.087,8.348A2.07,2.07,0,0,0,3.826,7.43a2.106,2.106,0,0,0,3.478,0,2.107,2.107,0,0,0,3.479,0,2.069,2.069,0,0,0,1.739.918,2.15,2.15,0,0,0,2.087-2.435H0A2.149,2.149,0,0,0,2.087,8.348Z" fill="#c94f49"/><path d="M8.348,12.522H6.261a.348.348,0,0,0-.348.348V16H8.7V12.87A.348.348,0,0,0,8.348,12.522Z" fill="#a67c52"/><path d="M8.348,11.478H6.261a.348.348,0,0,1-.348-.348V9.739a.348.348,0,0,1,.348-.348H8.348a.348.348,0,0,1,.348.348V11.13A.348.348,0,0,1,8.348,11.478Z" fill="#43a6dd"/></svg>