<svg xmlns="http://www.w3.org/2000/svg" width="16" height="16" viewBox="0 0 16 16"><title>troffee</title><path d="M3.478,6.609A2.439,2.439,0,0,1,1.043,4.174V2.435H3.478V1.391H.348A.348.348,0,0,0,0,1.739V4.174A3.478,3.478,0,0,0,3.478,7.652Z" fill="#d8bc48"/><path d="M12.522,6.609a2.439,2.439,0,0,0,2.435-2.435V2.435H12.522V1.391h3.13A.348.348,0,0,1,16,1.739V4.174a3.478,3.478,0,0,1-3.478,3.478Z" fill="#d8bc48"/><path d="M10.435,14.609h-.348A1.392,1.392,0,0,1,8.7,13.217V10.435H7.3v2.782a1.392,1.392,0,0,1-1.391,1.392H5.565a1.043,1.043,0,0,0-1.043,1.043V16h6.956v-.348A1.043,1.043,0,0,0,10.435,14.609Z" fill="#d8bc48"/><path d="M8,11.13A5.222,5.222,0,0,1,2.783,5.913V.348A.347.347,0,0,1,3.13,0h9.74a.347.347,0,0,1,.347.348V5.913A5.222,5.222,0,0,1,8,11.13Z" fill="#efd358"/></svg>