<svg xmlns="http://www.w3.org/2000/svg" width="428.003" height="120" viewBox="0 0 428.003 120"><title>bf-expert-brand</title><path d="M76.944,29.57a2.253,2.253,0,0,0-.988-1.759L28.614,0V68.938a2.259,2.259,0,0,0,.99,1.756L76.944,98.5Z" fill="#ffbd03"/><path d="M62.363,40.32a2.249,2.249,0,0,0-.991-1.757L14.042,10.75V79.68a2.26,2.26,0,0,0,.991,1.759L48.33,120,62.361,89.938Z" fill="#e10a14"/><path d="M48.33,51.067a2.255,2.255,0,0,0-.99-1.759L0,21.5V90.434a2.256,2.256,0,0,0,.991,1.757L48.33,120Z" fill="#1c1c1c"/><path d="M29.631,54.746l-.012,4.534c-.015,5.086-3.542,7.147-7.875,4.594a17.749,17.749,0,0,1-7.829-13.86V45.475L10.83,43.654,10.82,48.2A24.7,24.7,0,0,0,21.725,67.5c6.035,3.56,10.957.692,10.978-6.393V56.57Z" fill="#fff"/><path d="M139.776,40.039a12.113,12.113,0,0,0-6.024-1.469h-4.114a8.1,8.1,0,0,0-3.32.778,8.937,8.937,0,0,0-2.91,2.04v-14.4h-7.992V68.964h7.4v-3.84a9.609,9.609,0,0,0,3.059,3.12,6.848,6.848,0,0,0,3.7,1.2h4.057A11.894,11.894,0,0,0,139.7,67.92a10.6,10.6,0,0,0,4.112-4.289,13.317,13.317,0,0,0,1.471-6.353V50.441a13.033,13.033,0,0,0-1.442-6.24A10.161,10.161,0,0,0,139.776,40.039Zm-2.5,16.637a6.253,6.253,0,0,1-1.264,4.08,4.067,4.067,0,0,1-3.319,1.56h-3.813a4.9,4.9,0,0,1-3.556-1.471,6.868,6.868,0,0,1-1.91-3.867v-5.16a7.134,7.134,0,0,1,1.823-4.437,5.21,5.21,0,0,1,3.939-1.68h3.64a4.019,4.019,0,0,1,3.234,1.471,5.815,5.815,0,0,1,1.234,3.866Zm22.273,4.675a2.9,2.9,0,0,1-.649-2.1V27h-7.99V59.734a9.066,9.066,0,0,0,2.438,6.984,11.062,11.062,0,0,0,7.67,2.246h3.761V62h-3.174a2.78,2.78,0,0,1-2.056-.653ZM184.644,38.57h-5.05a12.337,12.337,0,0,0-8.257,2.667,8.778,8.778,0,0,0-3.143,7.044h7.757a2.52,2.52,0,0,1,1-2.1,4.185,4.185,0,0,1,2.644-.78h5.05a3.548,3.548,0,0,1,2.556.929,3.216,3.216,0,0,1,.962,2.429v3.12a15.714,15.714,0,0,0-3.234-1.14,14.276,14.276,0,0,0-3.292-.418h-3.583A12.205,12.205,0,0,0,170.3,52.63a7.364,7.364,0,0,0-2.94,6.086v2.218a7.624,7.624,0,0,0,2.82,6.175,11.224,11.224,0,0,0,7.406,2.337h3.643a8.518,8.518,0,0,0,4.054-1.106,10.677,10.677,0,0,0,3.472-2.971v3.6h7.4V48.761a9.366,9.366,0,0,0-3.174-7.4A12.182,12.182,0,0,0,184.644,38.57Zm3.527,20.444a6.511,6.511,0,0,1-2.469,3.057,6.834,6.834,0,0,1-3.881,1.138h-3.167a4.183,4.183,0,0,1-2.556-.72,2.219,2.219,0,0,1-.962-1.858v-1.56a2.349,2.349,0,0,1,.883-1.92,3.507,3.507,0,0,1,2.291-.72h3.7a14.526,14.526,0,0,1,3.554.423,7.14,7.14,0,0,1,2.618,1.137Zm63.642-7.256L264.391,39.05h-9.274L243.539,50.981V27h-8V68.964h7.992v-8.81l3.126-3.18,9.166,12h9.053Zm-30.174,9.293a3.735,3.735,0,0,1-3.025,1.38h-4.525A4.176,4.176,0,0,1,210.74,60.9a5.946,5.946,0,0,1-1.3-3.988V51.1a6.059,6.059,0,0,1,1.265-3.989,4.091,4.091,0,0,1,3.321-1.529h4.525a3.63,3.63,0,0,1,2.849,1.229,4.748,4.748,0,0,1,1.09,3.269h7.935a12.078,12.078,0,0,0-1.47-6.027,10.166,10.166,0,0,0-4.171-4.046,13.076,13.076,0,0,0-6.23-1.44h-4.646a13.681,13.681,0,0,0-6.523,1.5,10.773,10.773,0,0,0-4.379,4.2,12.278,12.278,0,0,0-1.556,6.24v7.013a12.257,12.257,0,0,0,1.556,6.24,10.73,10.73,0,0,0,4.407,4.195,13.864,13.864,0,0,0,6.553,1.5h4.645a11.369,11.369,0,0,0,12.1-12.05h-7.934A5.528,5.528,0,0,1,221.639,61.051Z" fill="#1c1c1c"/><path d="M301.043,40.039a8.361,8.361,0,0,0-3.2,2.847v-3.84h-7.4V68.964h7.993V52.838a6.612,6.612,0,0,1,1.94-4.917A6.882,6.882,0,0,1,305.416,46h3.994V38.93h-3.994A9.173,9.173,0,0,0,301.043,40.039ZM317.987,26.4a5.032,5.032,0,0,0-3.671,1.346,4.765,4.765,0,0,0-1.381,3.569,4.757,4.757,0,0,0,1.381,3.567,5.67,5.67,0,0,0,7.345,0,4.751,4.751,0,0,0,1.38-3.567,4.759,4.759,0,0,0-1.38-3.569,5.037,5.037,0,0,0-3.674-1.346Zm-3.994,42.564h7.99V39.05h-7.99ZM273.884,29.486a9.69,9.69,0,0,0-3.027,7.584v1.98h-5.05v6.96h5.05V68.971h7.992V46h7.045v-6.96h-7.045V37.2a3.574,3.574,0,0,1,.851-2.64,3.785,3.785,0,0,1,2.734-.84h4.114V26.76h-4.231A12.142,12.142,0,0,0,273.884,29.486Zm76.66,11.842a8.511,8.511,0,0,0-2.936-2.009,8.845,8.845,0,0,0-3.467-.749h-3.234A13.029,13.029,0,0,0,334.5,40.1a10.737,10.737,0,0,0-4.289,4.32,13.167,13.167,0,0,0-1.527,6.444V57.7a11.569,11.569,0,0,0,3.2,8.513,11.333,11.333,0,0,0,8.435,3.237h3.467a7.864,7.864,0,0,0,4.172-1.228,9.262,9.262,0,0,0,3.174-3.207v3.955h7.4V27h-7.993Zm0,14.626a7.653,7.653,0,0,1-1.851,4.708,5.223,5.223,0,0,1-4.023,1.769h-3.35a4.25,4.25,0,0,1-3.349-1.469,5.621,5.621,0,0,1-1.3-3.868V51.461a6.162,6.162,0,0,1,1.443-4.258,4.825,4.825,0,0,1,3.792-1.62H345.5a4.422,4.422,0,0,1,3.26,1.409,6.914,6.914,0,0,1,1.791,3.746Zm69.461-16.9V55.776a9.217,9.217,0,0,1-2.231,4.346,4.812,4.812,0,0,1-3.528,1.649h-3.407a3.1,3.1,0,0,1-2.556-1.229,5.037,5.037,0,0,1-.962-3.206V39.05h-8V57.216a12.059,12.059,0,0,0,2.823,8.362,9.541,9.541,0,0,0,7.454,3.148h3.879a6.564,6.564,0,0,0,3.436-1.051A10.621,10.621,0,0,0,420,64.769v3.9a6.474,6.474,0,0,1-1.145,3.987,3.542,3.542,0,0,1-2.967,1.526h-4.809a3.471,3.471,0,0,1-2.352-.809,3.045,3.045,0,0,1-1.058-2.126H399.8a10.248,10.248,0,0,0,3.438,7.164,11.41,11.41,0,0,0,7.846,2.729h4.809a12.682,12.682,0,0,0,6.345-1.56A10.708,10.708,0,0,0,426.5,75.2a13.726,13.726,0,0,0,1.5-6.533V39.05Zm-38.316-.48H376.64a12.337,12.337,0,0,0-8.257,2.667,8.78,8.78,0,0,0-3.145,7.044H373a2.524,2.524,0,0,1,1-2.1,4.188,4.188,0,0,1,2.645-.78h5.049a3.557,3.557,0,0,1,2.559.929,3.216,3.216,0,0,1,.962,2.429v3.12a15.655,15.655,0,0,0-3.234-1.14,14.331,14.331,0,0,0-3.292-.418H375.1a12.217,12.217,0,0,0-7.759,2.307,7.363,7.363,0,0,0-2.938,6.086v2.218a7.624,7.624,0,0,0,2.82,6.175,11.224,11.224,0,0,0,7.406,2.337h3.643a8.522,8.522,0,0,0,4.054-1.106,10.672,10.672,0,0,0,3.469-2.969v3.6h7.4V48.761a9.374,9.374,0,0,0-3.174-7.4A12.194,12.194,0,0,0,381.689,38.57Zm3.53,20.444a6.5,6.5,0,0,1-2.472,3.057,6.822,6.822,0,0,1-3.878,1.138H375.7a4.185,4.185,0,0,1-2.556-.72,2.211,2.211,0,0,1-.961-1.858v-1.56a2.352,2.352,0,0,1,.882-1.92,3.51,3.51,0,0,1,2.292-.72h3.7a14.518,14.518,0,0,1,3.553.423,7.144,7.144,0,0,1,2.619,1.137Z" fill="#e10a14"/><path d="M118.585,91.862h6.449V89.378h-6.449v-3.84h8.2V82.932H115.416V98.4h11.693V95.8h-8.524Zm25.524-8.93h-3.424l-3.078,5.388-3.078-5.39h-3.746l4.85,7.663L130.415,98.4h3.631l3.251-5.6,3.294,5.6h3.794l-5.148-7.92Zm54.257,0v2.6h5.1V98.4h3.169V85.534h5.079v-2.6Zm-43.209,0h-6.362V98.4h3.169V92.777h3.193a6.023,6.023,0,0,0,4.112-1.291A4.517,4.517,0,0,0,160.74,87.9a4.634,4.634,0,0,0-1.471-3.667A5.989,5.989,0,0,0,155.157,82.932Zm1.683,6.737a3.254,3.254,0,0,1-2.164.6h-2.712V85.51h2.71a3.283,3.283,0,0,1,2.164.588,2.206,2.206,0,0,1,.688,1.778,2.249,2.249,0,0,1-.69,1.793Zm36.868.833a4.67,4.67,0,0,0,.806-2.789,4.4,4.4,0,0,0-1.457-3.526A6.02,6.02,0,0,0,189,82.932h-6.684V98.4h3.126V92.47h2.83l3.573,5.93h3.561L191.4,92.119A4.429,4.429,0,0,0,193.7,90.5Zm-3.087-1.042a3.131,3.131,0,0,1-2.034.55h-3.15v-4.5h3.145a3.1,3.1,0,0,1,2.034.552,2.531,2.531,0,0,1,0,3.4Zm-21.744,2.4h6.456V89.378h-6.461v-3.84h8.2V82.932H165.7V98.4h11.691V95.8h-8.522Z" fill="#464646"/><path d="M293.407,91.949h6.456V89.465h-6.456v-3.84h8.2V83.018H290.238V98.486h11.693v-2.6h-8.524Zm-15.9-8.931h-5.858V98.486h5.858a7.325,7.325,0,0,0,5.516-2.016,7.873,7.873,0,0,0,1.95-5.716,7.889,7.889,0,0,0-1.95-5.72,7.345,7.345,0,0,0-5.516-2.016Zm3.09,11.566a3.969,3.969,0,0,1-3.249,1.325h-2.529V85.589h2.536a3.97,3.97,0,0,1,3.249,1.322,7.273,7.273,0,0,1,0,7.663Zm-22.386-2.64h6.456V89.465h-6.456v-3.84h8.2V83.018h-11.37V98.486h11.693v-2.6h-8.524Zm-12.037.022.094,2.743h-.048l-1.309-2.626-5.306-9.065H236V98.486h2.849V89.534l-.091-2.743h.022l1.31,2.6,5.307,9.091h3.628V83.018h-2.849Zm121.888,0,.094,2.743h-.045l-1.308-2.626L361.5,83.014h-3.607V98.486h2.849V89.534l-.091-2.743h.022l1.31,2.6,5.3,9.091h3.629V83.018h-2.85Zm-40.359-8.952h-3.172V98.486H335.7v-2.6h-7.993ZM388.3,85.03a7.335,7.335,0,0,0-5.516-2.016h-5.857V98.486h5.857A7.321,7.321,0,0,0,388.3,96.47a7.87,7.87,0,0,0,1.953-5.716,7.886,7.886,0,0,0-1.946-5.708Zm-2.426,9.549a3.965,3.965,0,0,1-3.248,1.325H380.1V85.584h2.53a3.967,3.967,0,0,1,3.248,1.322,7.27,7.27,0,0,1,0,7.664ZM344.246,83.018l-5.538,15.468h3.239l1.241-3.772h5.835l1.263,3.772h3.294l-5.531-15.468Zm-.284,9.3,1.469-4.406.644-2.3h.051l.688,2.343,1.423,4.358Zm-25.728-1.735a4.667,4.667,0,0,0,.805-2.789,4.4,4.4,0,0,0-1.457-3.528,6.035,6.035,0,0,0-4.054-1.253h-6.682V98.486h3.126v-5.93h2.847l3.561,5.93h3.561l-4-6.28A4.407,4.407,0,0,0,318.234,90.588Zm-3.088-1.042a3.129,3.129,0,0,1-2.034.55h-3.14V85.6h3.145a3.131,3.131,0,0,1,2.034.55,2.531,2.531,0,0,1,0,3.4Z" fill="#464646"/><path d="M224.077,83H227l-2,15.5h-2.923Z" fill="#464646"/></svg>