<svg xmlns="http://www.w3.org/2000/svg" width="1112.812" height="310.984" viewBox="0 0 1112.812 310.984"><title>pattern-bf</title><rect width="1112.812" height="310.984" fill="none"/><g opacity="0.15"><g opacity="0.83"><path d="M167.966,147.873a.28.28,0,0,0-.033-.12.259.259,0,0,0-.082-.092l-5.5-3.345v8.292a.268.268,0,0,0,.034.12.256.256,0,0,0,.081.092l5.5,3.345Z" fill="#e2e2e2" opacity="0.83" style="isolation:isolate"/><path d="M164.4,150.949a.284.284,0,0,0-.033-.121.275.275,0,0,0-.082-.091l-5.5-3.346v8.293a.28.28,0,0,0,.033.12.286.286,0,0,0,.082.091l5.5,3.345Z" fill="#cacaca" opacity="0.83" style="isolation:isolate"/><path d="M160.814,154.312a.28.28,0,0,0-.033-.12.269.269,0,0,0-.082-.092l-5.5-3.345v8.292a.268.268,0,0,0,.034.12.256.256,0,0,0,.081.092l5.5,3.345Z" fill="#b9b9b9" opacity="0.83" style="isolation:isolate"/></g><g opacity="0.91"><path d="M647.386,130.168a.4.4,0,0,0-.034-.119.234.234,0,0,0-.082-.092l-5.5-3.345V134.9a.391.391,0,0,0,.035.119.288.288,0,0,0,.081.092l5.5,3.345Z" fill="#e2e2e2" opacity="0.91" style="isolation:isolate"/><path d="M643.824,133.244a.406.406,0,0,0-.035-.12.231.231,0,0,0-.081-.092l-5.5-3.345v8.292a.4.4,0,0,0,.034.12.3.3,0,0,0,.082.092l5.5,3.344Z" fill="#cacaca" opacity="0.91" style="isolation:isolate"/><path d="M640.233,136.607a.223.223,0,0,0-.035-.119.24.24,0,0,0-.081-.092l-5.5-3.345v8.292a.282.282,0,0,0,.029.119.384.384,0,0,0,.081.092l5.5,3.345Z" fill="#b9b9b9" opacity="0.91" style="isolation:isolate"/></g><path d="M961.672,183.767a.278.278,0,0,0-.029-.118.4.4,0,0,0-.076-.09l-5.117-3.275v8.12a.277.277,0,0,0,.029.117.374.374,0,0,0,.075.09l5.118,3.275Z" fill="#e2e2e2" opacity="0.89" style="isolation:isolate"/><path d="M840.069,208.714a.284.284,0,0,0-.035-.117.218.218,0,0,0-.075-.09l-5.112-3.276v8.12a.273.273,0,0,0,.029.117.264.264,0,0,0,.075.09l5.118,3.276Z" fill="#e2e2e2" opacity="0.81" style="isolation:isolate"/><path d="M44.965,175.065a.279.279,0,0,0-.031-.117.246.246,0,0,0-.076-.09l-5.115-3.276v8.12a.3.3,0,0,0,.031.117.267.267,0,0,0,.076.09l5.115,3.276Z" fill="#e2e2e2" opacity="0.9" style="isolation:isolate"/><path d="M971.535,42.216a.277.277,0,0,0-.029-.117.339.339,0,0,0-.076-.09l-5.117-3.276v8.12a.277.277,0,0,0,.029.117.358.358,0,0,0,.076.09l5.117,3.276Z" fill="#e2e2e2" opacity="0.98" style="isolation:isolate"/><path d="M481.126,21.457a.278.278,0,0,0-.03-.117.267.267,0,0,0-.076-.09l-5.115-3.276v8.12a.3.3,0,0,0,.031.118.253.253,0,0,0,.076.089l5.114,3.276Z" fill="#e2e2e2" opacity="0.84" style="isolation:isolate"/><path d="M358.438,68.919a.3.3,0,0,0-.031-.117.267.267,0,0,0-.076-.09l-5.115-3.276v8.12a.279.279,0,0,0,.031.117.267.267,0,0,0,.076.09l5.115,3.275Z" fill="#e2e2e2" opacity="0.98" style="isolation:isolate"/><path d="M94.675,243.39a.266.266,0,0,0-.031-.118.253.253,0,0,0-.075-.09l-5.115-3.276v8.121a.278.278,0,0,0,.03.117.273.273,0,0,0,.076.089l5.115,3.276Z" fill="#e2e2e2" opacity="0.72" style="isolation:isolate"/><path d="M860.561,247.387a.264.264,0,0,0-.029-.118.26.26,0,0,0-.075-.089l-5.118-3.276v8.12a.277.277,0,0,0,.029.117.308.308,0,0,0,.082.09l5.111,3.275Z" fill="#e2e2e2" opacity="0.95" style="isolation:isolate"/><path d="M617.912,189.818a.265.265,0,0,0-.1-.207l-5.117-3.276v8.12a.416.416,0,0,0,.034.117.279.279,0,0,0,.076.09l5.111,3.275Z" fill="#e2e2e2" opacity="0.81" style="isolation:isolate"/><path d="M583.211,105.824a.277.277,0,0,0-.029-.117.264.264,0,0,0-.075-.09l-5.115-3.276v8.12a.261.261,0,0,0,.031.117.267.267,0,0,0,.076.09l5.112,3.276Z" fill="#e2e2e2" opacity="0.82" style="isolation:isolate"/><path d="M412.044,225.1a.3.3,0,0,0-.031-.118.265.265,0,0,0-.076-.09l-5.115-3.275v8.12a.272.272,0,0,0,.107.207l5.115,3.275Z" fill="#e2e2e2" opacity="0.71" style="isolation:isolate"/><path d="M230.047,154.181a.279.279,0,0,0-.031-.117.238.238,0,0,0-.076-.09l-5.115-3.276v8.12a.28.28,0,0,0,.032.117.253.253,0,0,0,.075.09l5.115,3.275Z" fill="#e2e2e2" opacity="0.89" style="isolation:isolate"/><path d="M147.079,46.277a.279.279,0,0,0-.031-.117.246.246,0,0,0-.076-.09l-5.115-3.276v8.12a.28.28,0,0,0,.032.117.253.253,0,0,0,.075.09l5.115,3.276Z" fill="#e2e2e2" opacity="0.72" style="isolation:isolate"/><g opacity="0.82"><path d="M398.883,139.267a.313.313,0,0,0-.033-.123.289.289,0,0,0-.083-.094l-5.553-3.435v8.516a.29.29,0,0,0,.034.123.266.266,0,0,0,.082.094l5.553,3.436Z" fill="#e2e2e2" opacity="0.82" style="isolation:isolate"/><path d="M390.128,147.686a.308.308,0,0,0-.033-.123.279.279,0,0,0-.083-.094l-5.553-3.436v8.517a.286.286,0,0,0,.034.122.279.279,0,0,0,.082.095l5.553,3.435Z" fill="#cacaca" opacity="0.82" style="isolation:isolate"/><path d="M381.345,156.4a.305.305,0,0,0-.034-.123.258.258,0,0,0-.082-.094l-5.553-3.436v8.516a.3.3,0,0,0,.033.123.279.279,0,0,0,.083.094l5.553,3.436Z" fill="#b9b9b9" opacity="0.82" style="isolation:isolate"/></g><g opacity="0.82"><path d="M836.721,110.724a.425.425,0,0,0-.035-.123.4.4,0,0,0-.081-.094l-5.558-3.436v8.516a.407.407,0,0,0,.035.123.36.36,0,0,0,.081.094l5.558,3.436Z" fill="#e2e2e2" opacity="0.82" style="isolation:isolate"/><path d="M827.96,119.142a.289.289,0,0,0-.029-.123.313.313,0,0,0-.087-.094l-5.552-3.436v8.517a.423.423,0,0,0,.034.123.4.4,0,0,0,.082.094l5.552,3.436Z" fill="#cacaca" opacity="0.82" style="isolation:isolate"/><path d="M819.182,127.857a.458.458,0,0,0-.035-.123.377.377,0,0,0-.081-.094l-5.559-3.436v8.517a.458.458,0,0,0,.035.123.327.327,0,0,0,.087.094l5.553,3.435Z" fill="#b9b9b9" opacity="0.82" style="isolation:isolate"/></g><g opacity="0.79"><path d="M368.388,266.757a.289.289,0,0,0-.033-.123.281.281,0,0,0-.083-.1l-5.553-3.436v8.518a.305.305,0,0,0,.034.122.29.29,0,0,0,.082.1l5.553,3.435Z" fill="#e2e2e2" opacity="0.79" style="isolation:isolate"/><path d="M359.633,275.175a.276.276,0,0,0-.116-.217l-5.553-3.436v8.517a.31.31,0,0,0,.034.123.3.3,0,0,0,.082.094l5.553,3.436Z" fill="#cacaca" opacity="0.79" style="isolation:isolate"/><path d="M350.85,283.89a.294.294,0,0,0-.034-.123.266.266,0,0,0-.082-.094l-5.553-3.436v8.517a.286.286,0,0,0,.034.122.279.279,0,0,0,.082.1l5.553,3.435Z" fill="#b9b9b9" opacity="0.79" style="isolation:isolate"/></g><g opacity="0.88"><path d="M1073.069,218.165a.3.3,0,0,0-.116-.218l-5.553-3.436v8.517a.234.234,0,0,0,.035.123.253.253,0,0,0,.081.094l5.553,3.436Z" fill="#e2e2e2" opacity="0.88" style="isolation:isolate"/><path d="M1064.314,226.583a.236.236,0,0,0-.035-.123.23.23,0,0,0-.081-.094l-5.553-3.436v8.516a.293.293,0,0,0,.116.217l5.553,3.436Z" fill="#cacaca" opacity="0.88" style="isolation:isolate"/><path d="M1055.53,235.3a.234.234,0,0,0-.035-.123.248.248,0,0,0-.081-.095l-5.553-3.436v8.517a.234.234,0,0,0,.035.123.23.23,0,0,0,.081.094l5.553,3.436Z" fill="#b9b9b9" opacity="0.88" style="isolation:isolate"/></g><g opacity="0.96"><g opacity="0.96"><path d="M1050.029,90.064a.3.3,0,0,0-.116-.223l-5.662-3.538v8.768a.249.249,0,0,0,.034.127.256.256,0,0,0,.082.1l5.662,3.536Z" fill="#e2e2e2" opacity="0.96" style="isolation:isolate"/><path d="M1046.363,93.316a.476.476,0,0,0-.035-.127.326.326,0,0,0-.087-.1l-5.663-3.537v8.768a.247.247,0,0,0,.035.126.238.238,0,0,0,.081.1l5.669,3.537Z" fill="#cacaca" opacity="0.96" style="isolation:isolate"/></g></g><g opacity="0.94"><g opacity="0.94"><path d="M861.571,32.183a.23.23,0,0,0-.035-.122.243.243,0,0,0-.081-.094l-5.663-3.41v8.454a.23.23,0,0,0,.035.122.233.233,0,0,0,.081.093l5.663,3.411Z" fill="#e2e2e2" opacity="0.94" style="isolation:isolate"/><path d="M852.642,40.539a.236.236,0,0,0-.035-.122.25.25,0,0,0-.081-.093l-5.663-3.411v8.454a.281.281,0,0,0,.029.122.3.3,0,0,0,.087.094l5.663,3.41Z" fill="#cacaca" opacity="0.94" style="isolation:isolate"/></g></g><g opacity="0.88"><g opacity="0.88"><path d="M544.708,240.018a.287.287,0,0,0-.035-.122.28.28,0,0,0-.084-.094l-5.664-3.41v8.454a.273.273,0,0,0,.035.122.268.268,0,0,0,.084.093l5.664,3.411Z" fill="#e2e2e2" opacity="0.88" style="isolation:isolate"/><path d="M535.777,248.375a.294.294,0,0,0-.034-.123.278.278,0,0,0-.084-.093L530,244.748V253.2a.286.286,0,0,0,.034.122.282.282,0,0,0,.084.094l5.664,3.41Z" fill="#cacaca" opacity="0.88" style="isolation:isolate"/></g></g><g opacity="0.98"><g opacity="0.98"><path d="M440.245,36.488a.279.279,0,0,0-.118-.216l-5.664-3.411v8.455a.29.29,0,0,0,.034.122.281.281,0,0,0,.085.093l5.663,3.41Z" fill="#e2e2e2" opacity="0.98" style="isolation:isolate"/><path d="M431.315,44.844a.286.286,0,0,0-.034-.122.272.272,0,0,0-.084-.094l-5.664-3.41v8.454a.286.286,0,0,0,.034.122.278.278,0,0,0,.084.093l5.664,3.411Z" fill="#cacaca" opacity="0.98" style="isolation:isolate"/></g></g><g opacity="0.91"><g opacity="0.91"><path d="M70.7,83.549a.294.294,0,0,0-.034-.123.289.289,0,0,0-.084-.093L64.92,79.922v8.454a.272.272,0,0,0,.034.122.262.262,0,0,0,.084.094L70.7,92Z" fill="#e2e2e2" opacity="0.91" style="isolation:isolate"/><path d="M61.771,91.905a.272.272,0,0,0-.034-.122.292.292,0,0,0-.084-.094l-5.664-3.411v8.455a.275.275,0,0,0,.118.215l5.664,3.41Z" fill="#cacaca" opacity="0.91" style="isolation:isolate"/></g></g></g></svg>