<svg width="272" height="272" viewBox="0 0 272 272" fill="none" xmlns="http://www.w3.org/2000/svg">
<path fill-rule="evenodd" clip-rule="evenodd" d="M0 0C0 0 26.9972 0.823729 45.3333 1.09836C63.6694 1.37299 72.3333 0 90.6667 0C109 0 117.667 1.09836 136 1.09836C154.333 1.09836 163 0 181.333 0C199.667 0 208.336 1.37291 226.667 1.09836C244.997 0.823812 272 0 272 0C272 0 271.25 30.9945 271 47.75C270.75 64.5055 272 78.75 272 95.5C272 112.25 271 126.5 271 143.25C271 160 272 174.25 272 191C272 207.75 271 222 271 238.75C271 255.5 270.75 236.506 271 253.25C271.25 269.994 272 272 272 272C272 272 245 270.902 226.667 270.902C208.333 270.902 199.667 272 181.333 272C163 272 154.333 270.902 136 270.902C117.667 270.902 109 272 90.6667 272C72.3333 272 63.6667 270.902 45.3333 270.902C27 270.902 0 272 0 272C0 272 0.749917 270.006 1 253.25C1.25008 236.494 1 255.5 1 238.75C1 222 0 207.75 0 191C0 174.25 1 160 1 143.25C1 126.5 0 112.25 0 95.5C0 78.75 1.24992 64.4945 1 47.75C0.750083 31.0055 0 0 0 0Z" fill="white"/>
</svg>
