<svg xmlns="http://www.w3.org/2000/svg" xmlns:xlink="http://www.w3.org/1999/xlink" width="13" height="13" viewBox="0 0 13 13">
    <defs>
        <path id="a" d="M11.669 8.125a5.414 5.414 0 0 0 .248-1.625c0-.566-.087-1.112-.248-1.625h-2.09a7.77 7.77 0 0 1 0 3.25h2.09zm-.477 1.083h-1.92a10.84 10.84 0 0 1-1.298 2.506 5.43 5.43 0 0 0 3.218-2.506zM4.736 8.125h3.732a6.745 6.745 0 0 0 0-3.25H4.827a7.864 7.864 0 0 0-.091 3.25zm.286 1.083c.308.899.794 1.792 1.48 2.673.715-.895 1.253-1.785 1.613-2.673H5.022zm-3.69-1.083h2.3a8.897 8.897 0 0 1 .084-3.25H1.331A5.414 5.414 0 0 0 1.083 6.5c0 .566.087 1.112.248 1.625zm.476 1.083a5.429 5.429 0 0 0 3.252 2.515 9.688 9.688 0 0 1-1.18-2.515H1.808zm9.384-5.416a5.43 5.43 0 0 0-3.218-2.506 10.84 10.84 0 0 1 1.298 2.506h1.92zm-6.044 0h2.967c-.357-.881-.89-1.764-1.596-2.652-.253.362-.506.773-.742 1.227-.247.472-.457.947-.63 1.425zm-3.34 0h2.195a12.36 12.36 0 0 1 .813-1.926c.112-.214.227-.42.343-.615a5.427 5.427 0 0 0-3.351 2.54zM6.5 13a6.5 6.5 0 1 1 0-13 6.5 6.5 0 0 1 0 13z"/>
    </defs>
    <g fill="none" fill-rule="evenodd">
        <mask id="b" fill="#fff">
            <use xlink:href="#a"/>
        </mask>
        <use fill="#979797" fill-rule="nonzero" xlink:href="#a"/>
        <g fill="#FFF" mask="url(#b)">
            <path d="M0 0h13v13H0z"/>
        </g>
    </g>
</svg>
