<?xml version="1.0" encoding="UTF-8"?>
<svg width="24px" height="24px" viewBox="0 0 24 24" version="1.1" xmlns="http://www.w3.org/2000/svg" xmlns:xlink="http://www.w3.org/1999/xlink">
    <!-- Generator: sketchtool 53 (72520) - https://sketchapp.com -->
    <title>F5F173DF-A190-42AF-BFDC-E8A423A484D3</title>
    <desc>Created with sketchtool.</desc>
    <defs>
        <path d="M21.3421987,4.16779942 C19.4244108,2.05897818 16.8582485,0.525907856 13.7731949,0.10987199 C10.4687394,-0.337475794 6.59911436,0.585861682 4.24204322,2.7949296 C2.07032467,4.90909086 0.582708257,6.92858818 0.18538711,9.92288132 C0.000993650253,11.3158976 -0.0455243356,12.5482278 0.0443944515,13.977896 C0.139108907,15.9049139 0.526359151,16.5522696 1.36392268,18.1547602 C1.40204825,18.2287922 1.44137273,18.3018534 1.48141656,18.3744291 C4.24204322,23.5129817 10.1907959,24.3941683 14.5306707,23.8666365 C16.06549,23.5129817 17.2610847,23.0692749 17.7171528,22.8821315 C19.7131101,22.0903527 21.5004558,20.2016858 22.6147294,18.3144752 C23.8448184,16.2296841 24.2430987,13.1977681 23.859685,11.0707422 C23.3801181,8.39879194 23.1957246,6.27030973 21.3421987,4.16779942 Z M8.72656259,9.72656274 L6.14843763,9.72656274 L6.14843763,17.4687501 L8.72656259,17.4687501 L8.72656259,9.72656274 Z M8.89062513,7.33593769 C8.88281267,6.57812512 8.33593738,6 7.45312502,6 C6.57812512,6 6,6.57812512 6,7.33593769 C6,8.07812489 6.55468728,8.67187492 7.42187519,8.67187492 L7.43750011,8.67187492 C8.33593738,8.67187492 8.89843759,8.07812489 8.89062513,7.33593769 Z M18,13.03125 C18,10.6562498 16.7343754,9.54687482 15.0390628,9.54687482 C13.6484374,9.54687482 13.0390624,10.3203128 12.7031249,10.8515627 L12.7187503,10.8515627 L12.7187503,9.72656274 L10.1484378,9.72656274 C10.1484378,9.72656274 10.1796876,10.453125 10.1484378,17.4687501 L12.7187503,17.4687501 L12.7187503,13.1484378 C12.7187503,12.9140627 12.7421877,12.6875 12.8046878,12.515625 C12.9921877,12.0546877 13.4140627,11.578125 14.1250001,11.578125 C15.0546877,11.578125 15.4296875,12.2890628 15.4296875,13.3281252 L15.4296875,17.4687501 L18,17.4687501 L18,13.03125 Z" id="path-1"></path>
    </defs>
    <g id="Symbols" stroke="none" stroke-width="1" fill="none" fill-rule="evenodd">
        <g id="Module-/-21.-Footer-/-01.-1920" transform="translate(-1396.000000, -344.000000)">
            <g id="Group">
                <g id="Icon-/-Social-/-LinkedIn" transform="translate(1396.000000, 344.000000)">
                    <mask id="mask-2" fill="white">
                        <use xlink:href="#path-1"></use>
                    </mask>
                    <use id="Mask" fill="#00A29C" fill-rule="evenodd" xlink:href="#path-1"></use>
                    <g id="Color-/-01.-Main-/-01.-Primary-/-01.-Default" mask="url(#mask-2)" fill="#00A29C" fill-rule="evenodd">
                        <rect id="Rectangle-6" x="0" y="0" width="24" height="24"></rect>
                    </g>
                </g>
            </g>
        </g>
    </g>
</svg>