<?xml version="1.0" encoding="utf-8"?>
<!-- Generator: Adobe Illustrator 22.1.0, SVG Export Plug-In . SVG Version: 6.00 Build 0)  -->
<svg version="1.1" id="Layer_1"
  xmlns="http://www.w3.org/2000/svg"
  xmlns:xlink="http://www.w3.org/1999/xlink" x="0px" y="0px"
	 viewBox="0 0 24 24" style="enable-background:new 0 0 24 24;" xml:space="preserve">
  <path id="mail" class="st0" d="M23.9,11.1c-0.5-2.7-0.7-4.8-2.5-6.9c-1.9-2.1-4.5-3.6-7.6-4.1c-3.3-0.4-7.2,0.5-9.5,2.7
	C2.1,4.9,0.6,6.9,0.2,9.9C0,11.3-0.1,12.5,0,14c0.1,1.9,0.5,2.6,1.3,4.2c0,0.1,0.1,0.1,0.1,0.2c2.8,5.1,8.7,6,13,5.5
	c1.5-0.4,2.7-0.8,3.2-1c2-0.8,3.8-2.7,4.9-4.6C23.8,16.2,24.2,13.2,23.9,11.1z M17,15c0,0.3-0.1,0.5-0.3,0.7
	C16.5,15.9,16.2,16,16,16H8c-0.3,0-0.5-0.1-0.7-0.3C7.1,15.5,7,15.3,7,15V9c0-0.3,0.1-0.5,0.3-0.7C7.5,8.1,7.7,8,8,8h8
	c0.3,0,0.5,0.1,0.7,0.3C16.9,8.5,17,8.7,17,9V15z M8,9v1l4,2.5l4-2.5V9l-4,2.5L8,9z"/>
</svg>
