<?xml version="1.0" encoding="utf-8"?>
<!-- Generator: Adobe Illustrator 22.1.0, SVG Export Plug-In . SVG Version: 6.00 Build 0)  -->
<svg version="1.1" id="Layer_1"
  xmlns="http://www.w3.org/2000/svg"
  xmlns:xlink="http://www.w3.org/1999/xlink" x="0px" y="0px"
	 viewBox="0 0 24 24" style="enable-background:new 0 0 24 24;" xml:space="preserve">
  <path id="search" class="st0" d="M23.6,21.9l-5.4-5.4c1.4-1.7,2.2-3.9,2.2-6.3C20.4,4.6,15.8,0,10.2,0S0,4.6,0,10.2
	c0,5.6,4.6,10.2,10.2,10.2c2.4,0,4.6-0.8,6.3-2.2l5.4,5.4c0.5,0.5,1.3,0.5,1.7,0C24.1,23.2,24.1,22.4,23.6,21.9z M15.8,15.6
	C15.7,15.6,15.7,15.7,15.8,15.6c-0.1,0.1-0.1,0.1-0.2,0.2c-1.4,1.4-3.3,2.2-5.4,2.2c-4.3,0-7.8-3.5-7.8-7.8c0-4.3,3.5-7.8,7.8-7.8
	S18,5.9,18,10.2C18,12.3,17.1,14.2,15.8,15.6z"/>
</svg>
